<svg width="128" height="128" viewBox="0 0 128 128" fill="none" xmlns="http://www.w3.org/2000/svg">
<g clip-path="url(#clip0_1006_11)">
<rect width="128" height="128" rx="20" fill="#C5EB8C"/>
<path d="M19.0807 21.0002C17.4104 20.9817 16.0186 22.3145 16 23.999C16 24.1841 16.0186 24.3507 16.0371 24.5173L28.9536 102.763C29.2877 104.744 30.995 106.187 32.9993 106.206H95.0023C96.5056 106.224 97.8046 105.132 98.0459 103.651L110.962 24.5173C111.222 22.8698 110.109 21.2964 108.439 21.0372C108.271 21.0002 108.086 21.0002 107.919 21.0002H19.0807ZM73.4934 77.551H53.7103L48.347 49.6366H78.2814L73.4934 77.551Z" fill="#83B537"/>
<path d="M106.787 49.5997H78.2443L73.4562 77.4957H53.6732L30.3269 105.132C31.0693 105.762 32.0157 106.132 32.9808 106.132H94.9466C96.4499 106.151 97.7489 105.058 97.9902 103.578L106.787 49.5997Z" fill="url(#paint0_linear_1006_11)"/>
</g>
<defs>
<linearGradient id="paint0_linear_1006_11" x1="113.459" y1="57.5022" x2="80.6992" y2="104.243" gradientUnits="userSpaceOnUse">
<stop offset="0.221154" stop-color="#C5EB8C"/>
<stop offset="1" stop-color="#83B537"/>
</linearGradient>
<clipPath id="clip0_1006_11">
<rect width="128" height="128" fill="white"/>
</clipPath>
</defs>
</svg>
