<svg width="128" height="128" viewBox="0 0 128 128" fill="none" xmlns="http://www.w3.org/2000/svg">
<g clip-path="url(#clip0_1006_11)">
<rect width="128" height="128" rx="20" fill="#C5EB8C"/>
<path d="M23.784 26.0002C22.2746 25.9834 21.0168 27.1879 21 28.7101C21 28.8774 21.0168 29.028 21.0335 29.1785L32.7061 99.8884C33.008 101.678 34.5509 102.983 36.3621 103H92.3937C93.7521 103.017 94.9261 102.03 95.1441 100.691L106.817 29.1785C107.051 27.6897 106.045 26.2678 104.536 26.0336C104.385 26.0002 104.217 26.0002 104.066 26.0002H23.784ZM72.9562 77.1046H55.0784L50.2317 51.8786H77.2831L72.9562 77.1046Z" fill="#83B537"/>
<path d="M103.043 51.8453H77.2495L72.9226 77.0546H55.0449L33.9471 102.03C34.618 102.599 35.4733 102.933 36.3454 102.933H92.3433C93.7018 102.95 94.8757 101.963 95.0937 100.625L103.043 51.8453Z" fill="url(#paint0_linear_1006_11)"/>
</g>
<defs>
<linearGradient id="paint0_linear_1006_11" x1="109.072" y1="58.9868" x2="79.4681" y2="101.226" gradientUnits="userSpaceOnUse">
<stop offset="0.221154" stop-color="#C5EB8C"/>
<stop offset="1" stop-color="#83B537"/>
</linearGradient>
<clipPath id="clip0_1006_11">
<rect width="128" height="128" fill="white"/>
</clipPath>
</defs>
</svg>
